<?xml version="1.0" encoding="utf-8"?>
<svg viewBox="0 0 110 110" xmlns="http://www.w3.org/2000/svg" xmlns:bx="https://boxy-svg.com">
  <defs>
    <bx:grid x="-15" y="-15" width="5" height="5"/>
  </defs>
  <path d="M 9.921 40 L 83.906 40 C 86.345 40 88.194 41.567 88.034 43.5 L 82.828 106.5 C 82.668 108.433 80.562 110 78.122 110 L 4.137 110 C 1.697 110 -0.151 108.433 0.01 106.5 L 5.215 43.5 C 5.375 41.567 7.482 40 9.921 40 Z" style="paint-order: fill; fill: rgb(251, 255, 17);"/>
  <path d="M 120.668 134.405 H 161.365 L 161.365 114.041 L 190.524 146.624 L 161.365 179.207 L 161.365 158.843 H 120.668 V 134.405 Z" style="fill: rgb(58, 166, 15);" transform="matrix(-0.004801, -0.999988, 0.999988, -0.004801, -83.458328, 191.381271)" bx:shape="arrow 120.668 114.041 69.856 65.166 24.438 29.159 0 1@b3801976"/>
  <path d="M 31.765 55 L 106.942 55 C 109.42 55 110.639 56.515 109.664 58.385 L 84.488 106.615 C 83.514 108.485 80.713 110 78.235 110 L 3.058 110 C 0.579 110 -0.639 108.485 0.336 106.615 L 25.511 58.385 C 26.486 56.515 29.287 55 31.765 55 Z" style="fill: rgb(242, 192, 41);"/>
</svg>